<svg xmlns="http://www.w3.org/2000/svg" viewBox="0 0 197.14 59.1"><defs><style>.cls-1{fill:#3398d7;}.cls-2{fill:#dfa52d;}</style></defs><title>Ativo 4</title><g id="Camada_2" data-name="Camada 2"><g id="Camada_1-2" data-name="Camada 1"><path class="cls-1" d="M32.33,48.65a15.61,15.61,0,0,1-9.06,9.15,19.93,19.93,0,0,1-7.43,1.3,23.14,23.14,0,0,1-8-1.22,20.09,20.09,0,0,1-6.58-4.25l5.31-5.3a14.52,14.52,0,0,0,3.92,2.77,12.19,12.19,0,0,0,5.06.9A10.48,10.48,0,0,0,20,51.15a8.45,8.45,0,0,0,3-2.32,9.21,9.21,0,0,0,1.71-3.34,14.33,14.33,0,0,0,.54-4V36.22a12.56,12.56,0,0,1-4.9,3.67,16.09,16.09,0,0,1-5.8,1,15.5,15.5,0,0,1-5.63-1,12.12,12.12,0,0,1-4.25-2.69A13.73,13.73,0,0,1,.82,30,50.29,50.29,0,0,1,0,20.41a50.29,50.29,0,0,1,.82-9.55A13.73,13.73,0,0,1,4.65,3.59Q8.25,0,14.61,0a16,16,0,0,1,5.92,1A12.61,12.61,0,0,1,25.47,4.9V.49h8.08V41.63A19.52,19.52,0,0,1,32.33,48.65ZM25,15.66a12.32,12.32,0,0,0-1.14-4.18,7.36,7.36,0,0,0-2.57-3,8,8,0,0,0-4.45-1.1,8.16,8.16,0,0,0-4.53,1.1,7,7,0,0,0-2.53,3,13.58,13.58,0,0,0-1.15,4.18,41.11,41.11,0,0,0,0,9.58,13.58,13.58,0,0,0,1.15,4.18,7,7,0,0,0,2.53,2.95,8.16,8.16,0,0,0,4.53,1.1,8,8,0,0,0,4.45-1.1,7.36,7.36,0,0,0,2.57-2.95A12.32,12.32,0,0,0,25,25.24a46.8,46.8,0,0,0,.25-4.79A46.65,46.65,0,0,0,25,15.66Z"/><path class="cls-2" d="M75.48,26a31.4,31.4,0,0,1-.62,4.78,19.9,19.9,0,0,1-1.43,4.36,12.21,12.21,0,0,1-2.49,3.6,11.9,11.9,0,0,1-4.32,2.69,17.55,17.55,0,0,1-11.68,0,12.43,12.43,0,0,1-4.89-3.72v21H41.72V.49h8.16V4.9A12.68,12.68,0,0,1,54.82,1a16.25,16.25,0,0,1,6-1,16.59,16.59,0,0,1,5.76,1,11.82,11.82,0,0,1,4.36,2.69,12.21,12.21,0,0,1,2.49,3.6,20.09,20.09,0,0,1,1.43,4.32,30.24,30.24,0,0,1,.62,4.74c.08,1.63.12,3.24.12,4.81S75.56,24.33,75.48,26ZM67,15.88a13.91,13.91,0,0,0-1.19-4.37,7.19,7.19,0,0,0-2.61-3,8.22,8.22,0,0,0-4.49-1.1,8.16,8.16,0,0,0-4.53,1.1,7.48,7.48,0,0,0-2.61,3,12.92,12.92,0,0,0-1.23,4.37,46.29,46.29,0,0,0-.28,5.26,46.47,46.47,0,0,0,.28,5.27,13.36,13.36,0,0,0,1.23,4.41,7.4,7.4,0,0,0,2.61,3,8.16,8.16,0,0,0,4.53,1.1,8.22,8.22,0,0,0,4.49-1.1,7.11,7.11,0,0,0,2.61-3A14.4,14.4,0,0,0,67,26.41a46.47,46.47,0,0,0,.28-5.27A46.29,46.29,0,0,0,67,15.88Z"/><path class="cls-2" d="M107.72,41.88V38.12A14.16,14.16,0,0,1,103,41.39a17.17,17.17,0,0,1-6.28,1,19.69,19.69,0,0,1-6.57-.94,12,12,0,0,1-4.54-2.82,12.38,12.38,0,0,1-3.26-8.89,11.27,11.27,0,0,1,3.55-8.58q3.56-3.34,10.73-3.34h10.94V14.86q0-3.91-2.08-5.84c-1.39-1.28-3.71-1.92-7-1.92A13.21,13.21,0,0,0,93.1,8a10.12,10.12,0,0,0-3.67,3.1L84,6a15.6,15.6,0,0,1,6.33-4.69A24.47,24.47,0,0,1,98.82,0q17.06,0,17.06,14.2V41.88Zm-.17-18.29H97.84a8.56,8.56,0,0,0-5.55,1.55,5.42,5.42,0,0,0-1.88,4.41,5.32,5.32,0,0,0,1.84,4.37q1.83,1.52,5.75,1.51a21.84,21.84,0,0,0,4.25-.37,6.79,6.79,0,0,0,3.51-2q1.78-1.79,1.79-6.12Z"/><path class="cls-2" d="M155.92,34.94a12.12,12.12,0,0,1-3.59,4.12,15.71,15.71,0,0,1-5.47,2.49,27.33,27.33,0,0,1-6.86.82,35.93,35.93,0,0,1-9.39-1.18,18.44,18.44,0,0,1-8-4.78l5.47-5.47a12.4,12.4,0,0,0,5.68,3.47,23.64,23.64,0,0,0,6.24.86,13.67,13.67,0,0,0,6.45-1.39,4.59,4.59,0,0,0,2.61-4.33,4.61,4.61,0,0,0-1.26-3.39,6.84,6.84,0,0,0-4.29-1.51l-6.61-.57q-5.88-.48-9.06-3.22t-3.19-8.21a11.35,11.35,0,0,1,4.57-9.34A16,16,0,0,1,134.16.86,20.88,20.88,0,0,1,140.24,0a32.68,32.68,0,0,1,8.58,1.06,16.67,16.67,0,0,1,6.77,3.59L150.37,10a11.9,11.9,0,0,0-4.61-2.33,22.2,22.2,0,0,0-5.6-.69,9,9,0,0,0-5.63,1.47,4.65,4.65,0,0,0-1.88,3.84,4.42,4.42,0,0,0,1.19,3.14c.78.84,2.3,1.37,4.53,1.59l6.53.57q5.88.49,9.1,3.31c2.15,1.88,3.22,4.66,3.22,8.37A12,12,0,0,1,155.92,34.94Z"/><path class="cls-2" d="M195.84,34.94a12.12,12.12,0,0,1-3.59,4.12,15.71,15.71,0,0,1-5.47,2.49,27.33,27.33,0,0,1-6.86.82,35.82,35.82,0,0,1-9.39-1.18,18.44,18.44,0,0,1-8-4.78L168,30.94a12.42,12.42,0,0,0,5.67,3.47,23.77,23.77,0,0,0,6.25.86,13.67,13.67,0,0,0,6.45-1.39A4.59,4.59,0,0,0,189,29.55a4.61,4.61,0,0,0-1.26-3.39,6.84,6.84,0,0,0-4.29-1.51l-6.61-.57q-5.88-.48-9.06-3.22t-3.19-8.21a11.35,11.35,0,0,1,4.57-9.34A15.86,15.86,0,0,1,174.08.86,20.88,20.88,0,0,1,180.16,0a32.68,32.68,0,0,1,8.58,1.06,16.67,16.67,0,0,1,6.77,3.59L190.29,10a11.87,11.87,0,0,0-4.62-2.33,22.12,22.12,0,0,0-5.59-.69,9,9,0,0,0-5.63,1.47,4.65,4.65,0,0,0-1.88,3.84,4.42,4.42,0,0,0,1.19,3.14q1.17,1.26,4.53,1.59l6.53.57q5.88.49,9.1,3.31c2.15,1.88,3.22,4.66,3.22,8.37A12,12,0,0,1,195.84,34.94Z"/></g></g></svg>