<svg xmlns="http://www.w3.org/2000/svg" viewBox="0 0 99.08 81.11"><defs><style>.cls-1{fill:#dfa52d;}.cls-2{fill:#3398d7;}</style></defs><title>Ativo 2</title><g id="Camada_2" data-name="Camada 2"><g id="Camada_1-2" data-name="Camada 1"><path class="cls-1" d="M98.09,33.54h0L82,16l-.11-.11-.12-.11a3.07,3.07,0,0,0-.26-.25l-.14-.11-.28-.22-.15-.1L80.62,15l-.15-.08-.33-.17L80,14.64l-.36-.13-.15,0-.38-.1-.17,0c-.13,0-.25-.05-.38-.06l-.33,0H78a.83.83,0,0,0-.22,0h-.33a2.32,2.32,0,0,0-.38.06l-.17,0-.38.1-.15,0a2.6,2.6,0,0,0-.36.13l-.15.05-.34.16-.15.08-.31.18-.15.1c-.1.06-.19.14-.29.21l-.14.11-.27.24-.11.11L74,16,57.6,33.25h0a3.85,3.85,0,0,0,5.27,5.59h0L74.47,28.69a5.38,5.38,0,0,1,6.82,0L92.74,39.05h0A3.85,3.85,0,0,0,99,37,3.85,3.85,0,0,0,98.09,33.54Z"/><path class="cls-2" d="M84.33,45a36.54,36.54,0,0,1-1.19,5,47,47,0,0,1-3.34,8.31A42.85,42.85,0,0,1,71,69.85a41.14,41.14,0,0,1-6.54,5A42.74,42.74,0,0,1,47.91,80.7a37.82,37.82,0,0,1-4.27.35c-.77,0-1.55.07-2.33,0-1.1,0-2.19-.12-3.29-.19a37.28,37.28,0,0,1-4.59-.65,42.6,42.6,0,0,1-9.61-3.15,41.43,41.43,0,0,1-7.88-4.81c-1-.8-2-1.66-3-2.55A39.63,39.63,0,0,1,8.3,64.49a42.74,42.74,0,0,1-4.6-7.8,41,41,0,0,1-2.38-6.52c-.34-1.3-.57-2.63-.8-4A28,28,0,0,1,.07,42C0,40.46,0,38.9,0,37.35A38.62,38.62,0,0,1,4.6,20.81a35.86,35.86,0,0,1,4.31-6.35c.79-.94,1.61-1.86,2.47-2.73a38.71,38.71,0,0,1,4.88-4.16,41.61,41.61,0,0,1,6.29-3.75A39.27,39.27,0,0,1,33.37.42,25.67,25.67,0,0,1,36.75.06C38,0,39.28,0,40.54,0a29.66,29.66,0,0,1,4.4.51.91.91,0,0,1,.77.49.81.81,0,0,1-.77,1.15c-.3,0-.61-.05-.91-.08A31.26,31.26,0,0,0,39.39,2a31.64,31.64,0,0,0-4.84.66,35.48,35.48,0,0,0-6.81,2.16,37,37,0,0,0-8.27,4.92c-.81.64-1.61,1.31-2.36,2s-1.66,1.59-2.43,2.44a34.56,34.56,0,0,0-4.07,5.53,34.17,34.17,0,0,0-3.73,9,36.12,36.12,0,0,0-.81,4.49,37.06,37.06,0,0,0-.18,5.67,40.57,40.57,0,0,0,.92,6.66,30.28,30.28,0,0,0,2.33,6.64,36,36,0,0,0,3.76,6.2,33.33,33.33,0,0,0,2.31,2.73,32.12,32.12,0,0,0,7.15,5.72A33.06,33.06,0,0,0,34.22,71q1.5.21,3,.3c1,.06,2,.09,3,.07a33.3,33.3,0,0,0,13-3,30.7,30.7,0,0,0,7.17-4.59,30.34,30.34,0,0,0,6.79-8.29,35.75,35.75,0,0,0,4-11.75,9.45,9.45,0,0,1,.55-2.23,6.59,6.59,0,0,1,12.53,1.24A5.81,5.81,0,0,1,84.33,45Z"/></g></g></svg>